<svg width="64px" height="64px" viewBox="-12.8 -12.8 57.60 57.60" version="1.1" xmlns="http://www.w3.org/2000/svg" xmlns:xlink="http://www.w3.org/1999/xlink" xmlns:sketch="http://www.bohemiancoding.com/sketch/ns" fill="" stroke="">
    <g id="SVGRepo_bgCarrier" stroke-width="0">
        <rect x="-12.8" y="-12.8" width="57.60" height="57.60" rx="28.8" fill="#b1b4fb" strokewidth="0">
        </rect>
    </g>
    <g id="SVGRepo_tracerCarrier" stroke-linecap="round" stroke-linejoin="round"></g>
    <g id="SVGRepo_iconCarrier">
        <g id="Page-1" stroke-width="0.00032" fill="none" fill-rule="evenodd" sketch:type="MSPage">
            <g id="Icon-Set-Filled" sketch:type="MSLayerGroup" transform="translate(-362.000000, -1037.000000)" fill="#7276d0">
                <path d="M390,1049 L382,1049 L382,1041 C382,1038.79 380.209,1037 378,1037 C375.791,1037 374,1038.79 374,1041 L374,1049 L366,1049 C363.791,1049 362,1050.79 362,1053 C362,1055.21 363.791,1057 366,1057 L374,1057 L374,1065 C374,1067.21 375.791,1069 378,1069 C380.209,1069 382,1067.21 382,1065 L382,1057 L390,1057 C392.209,1057 394,1055.21 394,1053 C394,1050.79 392.209,1049 390,1049" id="plus" sketch:type="MSShapeGroup">
                </path>
            </g>
        </g>
    </g>
</svg>